<svg xmlns="http://www.w3.org/2000/svg" viewBox="0 0 1180 256" role="img" aria-labelledby="title">
  <title id="title">Nexora</title>
  <path fill="#7383FF" d="M52 44h29c7 0 13 4 17 10l70 104V62c0-10 8-18 18-18h18c10 0 18 8 18 18v132c0 10-8 18-18 18h-29c-7 0-13-4-17-10L88 98v96c0 10-8 18-18 18H52c-10 0-18-8-18-18V62c0-10 8-18 18-18Z"/>
  <!-- Outlined wordmark to keep rendering consistent without a web-font dependency. -->
  <g fill="#F4F7FB" transform="translate(294 205) scale(.1 -.1)">
    <path d="M188 1493H618L1161 469V1493H1526V0H1096L553 1024V0H188Z"/>
    <path transform="translate(1714 0)" d="M1290 563V461H453Q466 335 544 272Q622 209 762 209Q875 209 993.5 242.5Q1112 276 1237 344V68Q1110 20 983-4.5Q856-29 729-29Q425-29 256.5 125.5Q88 280 88 559Q88 833 253.5 990Q419 1147 709 1147Q973 1147 1131.5 988Q1290 829 1290 563ZM922 682Q922 784 862.5 846.5Q803 909 707 909Q603 909 538 850.5Q473 792 457 682Z"/>
    <path transform="translate(3103 0)" d="M455 573L51 1120H430L659 788L891 1120H1270L866 575L1290 0H911L659 354L410 0H31Z"/>
    <path transform="translate(4424 0)" d="M705 891Q586 891 523.5 805.5Q461 720 461 559Q461 398 523.5 312.5Q586 227 705 227Q822 227 884 312.5Q946 398 946 559Q946 720 884 805.5Q822 891 705 891ZM705 1147Q994 1147 1156.5 991Q1319 835 1319 559Q1319 283 1156.5 127Q994-29 705-29Q415-29 251.5 127Q88 283 88 559Q88 835 251.5 991Q415 1147 705 1147Z"/>
    <path transform="translate(5831 0)" d="M1004 815Q957 837 910.5 847.5Q864 858 817 858Q679 858 604.5 769.5Q530 681 530 516V0H172V1120H530V936Q599 1046 688.5 1096.5Q778 1147 903 1147Q921 1147 942 1145.5Q963 1144 1003 1139Z"/>
    <path transform="translate(6841 0)" d="M674 504Q562 504 505.5 466Q449 428 449 354Q449 286 494.5 247.5Q540 209 621 209Q722 209 791 281.5Q860 354 860 463V504ZM1221 639V0H860V166Q788 64 698 17.5Q608-29 479-29Q305-29 196.5 72.5Q88 174 88 336Q88 533 223.5 625Q359 717 649 717H860V745Q860 830 793 869.5Q726 909 584 909Q469 909 370 886Q271 863 186 817V1090Q301 1118 417 1132.5Q533 1147 649 1147Q952 1147 1086.5 1027.5Q1221 908 1221 639Z"/>
  </g>
</svg>
